<?xml version="1.0" encoding="utf-8"?>
<!-- Generator: Adobe Illustrator 27.1.1, SVG Export Plug-In . SVG Version: 6.00 Build 0)  -->
<svg version="1.1" id="Calque_1" xmlns="http://www.w3.org/2000/svg" xmlns:xlink="http://www.w3.org/1999/xlink" x="0px" y="0px"
	 viewBox="0 0 354.3 566.9" style="enable-background:new 0 0 354.3 566.9;" xml:space="preserve">
<style type="text/css">
	.st0{fill:#504646;}
	.st1{fill:#9F5116;stroke:#000000;stroke-miterlimit:10;}
	.st2{fill:#F9B233;stroke:#000000;stroke-miterlimit:10;}
	.st3{fill:none;}
	.st4{font-family:'Algerian';}
	.st5{font-size:58px;}
	.st6{font-size:28px;}
	.st7{fill:#FFFFFF;stroke:#000000;stroke-miterlimit:10;}
	.st8{fill:#D82526;}
	.st9{fill:#3756A3;}
	.st10{fill:#54A433;}
	.st11{fill:#E6DB3E;}
</style>
<rect class="st0" width="354.3" height="566.9"/>
<rect class="st1" width="354.3" height="39.8"/>
<rect y="527.1" class="st1" width="354.3" height="39.8"/>
<g>
	<g>
		<g>
			<rect x="2.5" class="st1" width="9.2" height="39.8"/>
			<rect x="11.7" class="st1" width="9.2" height="39.8"/>
			<rect x="20.9" class="st1" width="9.2" height="39.8"/>
			<rect x="30.1" class="st1" width="9.2" height="39.8"/>
			<rect x="39.3" class="st1" width="9.2" height="39.8"/>
		</g>
		<g>
			<rect x="48.5" class="st1" width="9.2" height="39.8"/>
			<rect x="57.7" class="st1" width="9.2" height="39.8"/>
			<rect x="66.9" class="st1" width="9.2" height="39.8"/>
			<rect x="76.1" class="st1" width="9.2" height="39.8"/>
			<rect x="85.3" class="st1" width="9.2" height="39.8"/>
		</g>
		<g>
			<rect x="94.4" class="st1" width="9.2" height="39.8"/>
			<rect x="103.6" class="st1" width="9.2" height="39.8"/>
			<rect x="112.8" class="st1" width="9.2" height="39.8"/>
			<rect x="122" class="st1" width="9.2" height="39.8"/>
			<rect x="131.2" class="st1" width="9.2" height="39.8"/>
		</g>
	</g>
	<g>
		<g>
			<rect x="140.4" class="st1" width="9.2" height="39.8"/>
			<rect x="149.6" class="st1" width="9.2" height="39.8"/>
			<rect x="158.8" class="st1" width="9.2" height="39.8"/>
			<rect x="168" class="st1" width="9.2" height="39.8"/>
			<rect x="177.2" class="st1" width="9.2" height="39.8"/>
		</g>
		<g>
			<rect x="186.4" class="st1" width="9.2" height="39.8"/>
			<rect x="195.5" class="st1" width="9.2" height="39.8"/>
			<rect x="204.7" class="st1" width="9.2" height="39.8"/>
			<rect x="213.9" class="st1" width="9.2" height="39.8"/>
			<rect x="223.1" class="st1" width="9.2" height="39.8"/>
		</g>
		<g>
			<rect x="232.3" class="st1" width="9.2" height="39.8"/>
			<rect x="241.5" class="st1" width="9.2" height="39.8"/>
			<rect x="250.7" class="st1" width="9.2" height="39.8"/>
			<rect x="259.9" class="st1" width="9.2" height="39.8"/>
			<rect x="269.1" class="st1" width="9.2" height="39.8"/>
		</g>
		<g>
			<rect x="278.3" class="st1" width="9.2" height="39.8"/>
			<rect x="287.5" class="st1" width="9.2" height="39.8"/>
			<rect x="296.7" class="st1" width="9.2" height="39.8"/>
			<rect x="305.8" class="st1" width="9.2" height="39.8"/>
			<rect x="315" class="st1" width="9.2" height="39.8"/>
			<rect x="324.2" class="st1" width="9.2" height="39.8"/>
			<rect x="333.4" class="st1" width="9.2" height="39.8"/>
			<rect x="342.6" class="st1" width="9.2" height="39.8"/>
		</g>
	</g>
</g>
<g>
	<g>
		<g>
			<rect x="2.5" y="527.1" class="st1" width="9.2" height="39.8"/>
			<rect x="11.7" y="527.1" class="st1" width="9.2" height="39.8"/>
			<rect x="20.9" y="527.1" class="st1" width="9.2" height="39.8"/>
			<rect x="30.1" y="527.1" class="st1" width="9.2" height="39.8"/>
			<rect x="39.3" y="527.1" class="st1" width="9.2" height="39.8"/>
		</g>
		<g>
			<rect x="48.5" y="527.1" class="st1" width="9.2" height="39.8"/>
			<rect x="57.7" y="527.1" class="st1" width="9.2" height="39.8"/>
			<rect x="66.9" y="527.1" class="st1" width="9.2" height="39.8"/>
			<rect x="76.1" y="527.1" class="st1" width="9.2" height="39.8"/>
			<rect x="85.3" y="527.1" class="st1" width="9.2" height="39.8"/>
		</g>
		<g>
			<rect x="94.4" y="527.1" class="st1" width="9.2" height="39.8"/>
			<rect x="103.6" y="527.1" class="st1" width="9.2" height="39.8"/>
			<rect x="112.8" y="527.1" class="st1" width="9.2" height="39.8"/>
			<rect x="122" y="527.1" class="st1" width="9.2" height="39.8"/>
			<rect x="131.2" y="527.1" class="st1" width="9.2" height="39.8"/>
		</g>
	</g>
	<g>
		<g>
			<rect x="140.4" y="527.1" class="st1" width="9.2" height="39.8"/>
			<rect x="149.6" y="527.1" class="st1" width="9.2" height="39.8"/>
			<rect x="158.8" y="527.1" class="st1" width="9.2" height="39.8"/>
			<rect x="168" y="527.1" class="st1" width="9.2" height="39.8"/>
			<rect x="177.2" y="527.1" class="st1" width="9.2" height="39.8"/>
		</g>
		<g>
			<rect x="186.4" y="527.1" class="st1" width="9.2" height="39.8"/>
			<rect x="195.5" y="527.1" class="st1" width="9.2" height="39.8"/>
			<rect x="204.7" y="527.1" class="st1" width="9.2" height="39.8"/>
			<rect x="213.9" y="527.1" class="st1" width="9.2" height="39.8"/>
			<rect x="223.1" y="527.1" class="st1" width="9.2" height="39.8"/>
		</g>
		<g>
			<rect x="232.3" y="527.1" class="st1" width="9.2" height="39.8"/>
			<rect x="241.5" y="527.1" class="st1" width="9.2" height="39.8"/>
			<rect x="250.7" y="527.1" class="st1" width="9.2" height="39.8"/>
			<rect x="259.9" y="527.1" class="st1" width="9.2" height="39.8"/>
			<rect x="269.1" y="527.1" class="st1" width="9.2" height="39.8"/>
		</g>
		<g>
			<rect x="278.3" y="527.1" class="st1" width="9.2" height="39.8"/>
			<rect x="287.5" y="527.1" class="st1" width="9.2" height="39.8"/>
			<rect x="296.7" y="527.1" class="st1" width="9.2" height="39.8"/>
			<rect x="305.8" y="527.1" class="st1" width="9.2" height="39.8"/>
			<rect x="315" y="527.1" class="st1" width="9.2" height="39.8"/>
			<rect x="324.2" y="527.1" class="st1" width="9.2" height="39.8"/>
			<rect x="333.4" y="527.1" class="st1" width="9.2" height="39.8"/>
			<rect x="342.6" y="527.1" class="st1" width="9.2" height="39.8"/>
		</g>
	</g>
</g>
<circle class="st2" cx="177.2" cy="317.5" r="128.7"/>
<rect y="79.4" class="st3" width="354.3" height="98"/>
<text transform="matrix(1 0 0 1 88.4946 130.9683)"><tspan x="0" y="0" class="st4 st5">Magic</tspan><tspan x="-13.5" y="33.6" class="st4 st6">The Pottering</tspan></text>
<rect x="462.9" y="154.5" class="st3" width="3.1" height="0.8"/>
<circle class="st7" cx="177.2" cy="317.5" r="125.7"/>
<g>
	<path class="st8" d="M177.2,193.4v124.1H53.1C53.1,248.9,108.6,193.4,177.2,193.4z"/>
	<path class="st9" d="M301.3,317.5c0,68.5-55.6,124.1-124.1,124.1V317.5H301.3z"/>
	<path class="st10" d="M301.3,317.5H177.2V193.4C245.7,193.4,301.3,248.9,301.3,317.5z"/>
	<path class="st11" d="M177.2,317.5v124.1c-68.5,0-124.1-55.5-124.1-124.1H177.2z"/>
</g>
<g>
	<rect x="215.5" y="320" transform="matrix(0.7071 -0.7071 0.7071 0.7071 -190.4937 261.5599)" width="10" height="81.4"/>
	<polygon points="221.1,365.4 96.8,237.7 97.9,236.6 225.2,361.3 	"/>
</g>
</svg>
